<?xml version="1.0" encoding="UTF-8" standalone="no"?>
<!-- Created with Inkscape (http://www.inkscape.org/) -->

<svg
   width="27.870541mm"
   height="5.4914069mm"
   viewBox="0 0 27.870541 5.4914069"
   version="1.1"
   id="svg5"
   xml:space="preserve"
   inkscape:version="1.2.2 (b0a8486541, 2022-12-01)"
   sodipodi:docname="deskflow-logo-light.svg"
   inkscape:export-filename="deskflow-logo-light-200.png"
   inkscape:export-xdpi="182.2713"
   inkscape:export-ydpi="182.2713"
   xmlns:inkscape="http://www.inkscape.org/namespaces/inkscape"
   xmlns:sodipodi="http://sodipodi.sourceforge.net/DTD/sodipodi-0.dtd"
   xmlns="http://www.w3.org/2000/svg"
   xmlns:svg="http://www.w3.org/2000/svg"><sodipodi:namedview
     id="namedview7"
     pagecolor="#ffffff"
     bordercolor="#000000"
     borderopacity="0.25"
     inkscape:showpageshadow="2"
     inkscape:pageopacity="0.0"
     inkscape:pagecheckerboard="true"
     inkscape:deskcolor="#d1d1d1"
     inkscape:document-units="mm"
     showgrid="false"
     inkscape:zoom="11.146352"
     inkscape:cx="41.672827"
     inkscape:cy="18.750529"
     inkscape:window-width="1920"
     inkscape:window-height="1011"
     inkscape:window-x="0"
     inkscape:window-y="0"
     inkscape:window-maximized="1"
     inkscape:current-layer="text361" /><defs
     id="defs2" /><g
     style="fill:#e8eaed"
     id="g147"
     transform="matrix(0.00680592,0,0,0.00680592,-0.71928869,6.0125451)"
     inkscape:label="icon"><path
       d="m 117.12312,-405.07753 q -5.19881,-8.6449 -8.31809,-18.01021 -3.11929,-9.36531 -3.11929,-20.89184 0,-11.52653 3.63917,-23.05307 3.63916,-11.52653 9.87774,-20.17143 45.74952,-59.07349 93.57856,-87.16942 47.82904,-28.09593 100.8569,-28.09593 38.47119,0 81.10142,15.84899 42.63024,15.84898 110.21475,54.75103 59.26643,33.13879 90.97916,46.10614 31.71274,12.96735 58.74655,12.96735 35.3519,0 66.02487,-21.61225 30.67298,-21.61225 61.86583,-67.71839 6.23857,-8.6449 14.55667,-13.68776 8.31809,-5.04286 16.63619,-5.04286 8.31809,0 15.07654,4.32245 6.75846,4.32245 12.99703,11.52654 6.23857,8.6449 9.35785,19.45102 3.11929,10.80613 3.11929,22.33267 0,11.52653 -3.11929,21.61225 -3.11928,10.08572 -8.31809,18.73062 -42.63024,63.39594 -89.41952,94.3735 -46.78928,30.97756 -98.77737,30.97756 -36.39167,0 -76.4225,-15.12858 -40.03083,-15.12857 -104.49606,-52.58981 -62.38571,-36.02042 -95.65809,-48.98777 -33.27238,-12.96735 -63.42547,-12.96735 -36.39166,0 -70.18392,20.89184 -33.79226,20.89184 -68.1044,64.11635 -6.23857,7.20408 -13.51691,11.52653 -7.27833,4.32245 -15.59643,4.32245 -8.31809,0 -16.1163,-4.32245 -7.79822,-4.32245 -14.03679,-14.40817 z m 0,280.95928 q -5.19881,-8.6449 -8.31809,-18.01021 -3.11929,-9.36531 -3.11929,-20.89184 0,-11.52654 3.63917,-23.05307 3.63916,-11.52653 9.87774,-20.17143 45.74952,-59.07349 93.05868,-87.16942 47.30916,-28.09593 100.33702,-28.09593 38.47118,0 82.14118,15.84898 43.67,15.84899 110.21475,54.75104 59.26643,33.13879 90.45928,46.10614 31.19286,12.96735 58.22667,12.96735 35.3519,0 67.06463,-21.61225 31.71274,-21.61225 61.86583,-67.71839 6.23857,-8.6449 14.03679,-12.96735 7.79821,-4.32245 16.11631,-4.32245 8.31809,0 15.07654,3.60204 6.75845,3.60204 12.99702,10.80613 6.23858,8.6449 9.87774,20.17143 3.63917,11.52654 3.63917,23.05307 0,11.52654 -3.11929,20.89185 -3.11928,9.3653 -8.31809,18.01021 -42.63024,63.39594 -89.41952,94.3735 -46.78928,30.977558 -98.77737,30.977558 -36.39167,0 -76.4225,-15.128576 -40.03083,-15.128572 -105.53582,-52.589812 -62.38571,-36.02042 -95.65809,-48.98777 -33.27238,-12.96735 -62.38571,-12.96735 -36.39166,0 -71.22369,21.61225 -34.83202,21.61225 -68.1044,64.83675 -6.23857,7.20409 -13.5169,10.80613 -7.27833,3.60204 -14.55667,3.60204 -8.31809,0 -16.63618,-4.32245 -8.3181,-4.32245 -13.51691,-14.40817 z m 0,-561.91855 q -5.19881,-8.64491 -8.31809,-18.01021 -3.11929,-9.36531 -3.11929,-20.89185 0,-11.52653 3.63917,-23.05307 3.63916,-11.52653 9.87774,-20.17143 45.74952,-59.07349 93.05868,-87.16942 47.30916,-28.09593 100.33702,-28.09593 38.47118,0 82.14118,15.84899 43.67,15.84898 110.21475,54.75104 59.26643,33.13878 90.45928,46.10613 31.19286,12.96735 58.22667,12.96735 35.3519,0 67.06463,-21.61225 31.71274,-21.61225 61.86583,-67.71839 6.23857,-10.08572 14.03679,-14.40817 7.79821,-4.32245 16.11631,-4.32245 8.31809,0 15.59642,4.32245 7.27834,4.32245 13.51691,11.52654 6.23857,8.6449 9.35785,19.45103 3.11929,10.80612 3.11929,22.33266 0,11.52653 -3.11929,21.61225 -3.11928,10.08572 -8.31809,18.73062 -42.63024,63.39594 -88.89964,94.3735 -46.2694,30.97756 -99.29725,30.97756 -36.39167,0 -76.4225,-14.40817 -40.03083,-14.40817 -104.49606,-51.8694 -62.38571,-36.02042 -95.65809,-48.98778 -33.27238,-12.96735 -63.42547,-12.96735 -36.39166,0 -71.22369,20.89185 -34.83202,20.89184 -68.1044,64.11635 -6.23857,7.20408 -13.5169,10.80612 -7.27833,3.60204 -14.55667,3.60204 -8.31809,0 -16.63618,-4.32245 -8.3181,-4.32245 -13.51691,-14.40816 z"
       id="path56"
       style="stroke-width:1.22397" /><path
       style="fill:#33cc99;fill-opacity:1;stroke-width:1.50257"
       d="m 623.5988,-641.82717 c -39.07932,-6.57085 -73.67394,-20.99587 -140.9536,-58.77381 -97.41981,-54.70183 -119.57526,-63.7419 -160.36641,-65.43419 -17.2441,-0.71541 -25.47887,-0.25858 -35.67406,1.97902 -34.75246,7.62733 -70.49609,32.30217 -102.73741,70.92249 -14.56698,17.4491 -18.72343,20.8451 -29.16934,23.83265 -18.60835,5.32206 -35.19782,-7.00114 -44.43783,-33.00987 -3.62979,-10.2171 -3.90112,-12.22024 -3.37174,-24.89238 0.83971,-20.10038 5.7252,-31.96262 20.7599,-50.40614 70.85554,-86.92063 147.44692,-119.56378 233.00512,-99.30647 37.94495,8.98409 73.60092,24.96141 144.87526,64.91812 83.03397,46.54923 112.97316,58.33211 148.06633,58.27307 45.95543,-0.0772 82.24279,-23.32691 121.71506,-77.98382 17.63872,-24.42418 23.0155,-28.53594 37.34857,-28.56142 8.623,-0.0154 10.75854,0.70208 18.90853,6.35203 14.43597,10.00769 21.78975,26.74573 21.78975,49.59592 0,19.33515 -3.49152,28.6528 -19.03068,50.7874 -61.75524,87.96609 -131.62998,125.00697 -210.72745,111.7074 z"
       id="path970" /><path
       style="fill:#33b2cc;fill-opacity:1;stroke-width:1.50257"
       d="m 629.98099,-359.88567 c -37.22585,-5.24164 -78.06299,-22.41773 -153.17206,-64.42422 -74.28657,-41.54648 -97.22788,-52.22074 -127.64341,-59.39065 -13.57029,-3.19896 -19.39001,-3.63218 -38.93124,-2.89806 -19.53884,0.73401 -24.94353,1.57603 -36.12991,5.62876 -31.4603,11.39772 -60.67994,33.6603 -89.67419,68.32318 -19.31742,23.09411 -32.56392,29.26939 -49.33278,22.99803 -10.73217,-4.01377 -24.17224,-23.58922 -27.32096,-39.79299 -2.12519,-10.93667 -0.91265,-28.80988 2.64998,-39.06135 8.15918,-23.47794 50.67907,-69.44576 88.1461,-95.29378 53.69382,-37.04271 110.59472,-46.77369 172.29238,-29.46482 35.38687,9.92757 59.87709,21.23631 133.55923,61.67301 53.69987,29.47047 87.13175,45.70415 108.38789,52.63056 17.25302,5.62207 48.01221,7.68745 64.5935,4.33743 32.80078,-6.62677 62.14578,-29.0977 94.85186,-72.63267 17.31607,-23.04944 23.6624,-28.78002 35.24243,-31.8232 17.42928,-4.58065 36.82487,10.97262 43.24931,34.68075 2.23507,8.24867 2.73624,13.2403 2.38023,23.71377 -0.62594,18.41473 -4.04135,27.18464 -18.85837,48.41836 -41.26104,59.13037 -90.1711,97.1873 -140.24166,109.12199 -17.53076,4.17837 -46.8943,5.67105 -64.04854,3.25567 z"
       id="path1767" /><path
       style="fill:#4c33cc;fill-opacity:1;stroke-width:1.50257"
       d="m 633.78235,-78.610566 c -40.07333,-4.605427 -76.71154,-19.765413 -161.61018,-66.869754 -71.57911,-39.71421 -95.82462,-50.82769 -126.25256,-57.87058 -16.56713,-3.83487 -44.75224,-3.90346 -60.01213,-0.14408 -34.18541,8.41679 -69.09819,33.00347 -100.76373,70.9611 -16.93725,20.30278 -22.67839,24.37285 -35.74015,25.33716 -13.89147,1.02586 -22.54647,-3.41589 -30.47851,-15.64133 -8.1674,-12.59021 -11.49767,-23.06471 -12.04851,-37.89758 -0.91846,-24.73237 6.87247,-40.59801 35.50664,-72.30652 60.01339,-66.45693 126.04391,-95.4906 195.47826,-85.95193 43.71316,6.00521 80.32747,20.63751 154.72654,61.83386 69.8992,38.70472 99.89104,53.41454 122.71398,60.18621 18.1851,5.39557 48.48871,6.69933 63.66088,2.7387 35.51668,-9.27102 60.86653,-28.66522 92.59711,-70.84237 21.23971,-28.23246 25.59049,-31.60581 40.95106,-31.75128 9.39304,-0.0865 11.829,0.5648 18.1438,4.86074 14.69853,10.00198 23.31945,30.49333 22.46859,53.40618 -0.71286,19.19791 -3.90285,26.47962 -23.24429,53.06333 -47.87305,65.79835 -98.52555,100.235835 -157.36912,106.991825 -16.78841,1.927813 -21.15454,1.91571 -38.72768,-0.103739 z"
       id="path2564" /><path
       style="fill:#4c33cc;fill-opacity:1;stroke-width:0.0306905"
       d="M 15.851662,22.01862 C 14.857693,21.897041 13.997167,21.541217 11.827112,20.354486 9.454247,19.056845 8.8990831,18.84399 7.887468,18.84399 c -0.534124,0 -0.8076684,0.04613 -1.1916067,0.200945 -0.6990246,0.28187 -1.3262577,0.769915 -2.044904,1.591126 -0.515458,0.589022 -0.6285993,0.663172 -1.0119089,0.663172 -0.3241538,0 -0.542327,-0.159678 -0.7496515,-0.548659 C 2.7533673,20.495357 2.6995962,20.2564 2.6986304,19.902813 c -0.00137,-0.503348 0.1264256,-0.809775 0.5650374,-1.354791 0.5158616,-0.641007 1.171111,-1.24575 1.8083014,-1.668919 1.3934402,-0.925407 2.7818951,-1.111357 4.4420973,-0.594911 0.7245875,0.2254 1.4498295,0.5694 3.0997445,1.470284 1.702283,0.929478 2.438231,1.272282 2.976982,1.386676 0.194722,0.04135 0.393163,0.05512 0.782609,0.05433 0.489171,-9.98e-4 0.538022,-0.0065 0.782608,-0.08785 0.802531,-0.266987 1.36015,-0.71175 2.121249,-1.691933 0.370042,-0.47656 0.612938,-0.729954 0.749467,-0.781862 0.131341,-0.04994 0.497695,-0.03667 0.623367,0.02257 0.155208,0.07316 0.383455,0.30841 0.475532,0.490116 0.136728,0.26982 0.180501,0.507458 0.168823,0.916515 -0.01018,0.356509 -0.01478,0.378473 -0.12676,0.604992 -0.207665,0.420073 -0.764231,1.155977 -1.279676,1.692016 -0.98182,1.021047 -1.968689,1.53733 -3.198823,1.673472 -0.354963,0.03928 -0.401336,0.03846 -0.837527,-0.01489 z"
       id="path3391"
       transform="matrix(40,0,0,40,0,-960)" /><path
       style="fill:#3366cc;fill-opacity:1;stroke-width:0.0306905"
       d="M 15.930047,22.031271 C 14.919481,21.925738 14.034946,21.564036 11.815857,20.348906 10.1659,19.445422 9.5073081,19.137248 8.8081841,18.941529 8.5360972,18.865359 8.4746032,18.859888 7.887468,18.859621 c -0.574506,-2.61e-4 -0.6491499,0.006 -0.859335,0.07166 -0.8598307,0.268762 -1.5478704,0.762434 -2.376361,1.705054 -0.5187038,0.590158 -0.629827,0.662896 -1.0127236,0.662896 -0.3241538,0 -0.542327,-0.159678 -0.7496515,-0.548659 C 2.7533673,20.495357 2.6995962,20.2564 2.6986304,19.902813 2.6972556,19.399465 2.825056,19.093038 3.2636678,18.548022 3.8965446,17.761613 4.7561387,17.020199 5.5301449,16.593148 6.3298536,16.151915 7.342548,15.932112 8.1925136,16.015287 c 1.222803,0.119658 2.0609254,0.449281 4.4212974,1.738837 1.895173,1.035402 2.629246,1.354992 3.283887,1.429694 1.341139,0.153039 2.256422,-0.326108 3.379561,-1.769188 0.370532,-0.476082 0.613341,-0.729041 0.749467,-0.780796 0.118712,-0.04514 0.492205,-0.03653 0.613466,0.01414 0.160039,0.06687 0.404366,0.329724 0.505752,0.544104 0.126732,0.267974 0.161095,0.472012 0.148717,0.883054 -0.0103,0.34207 -0.01588,0.368104 -0.126973,0.592863 -0.211426,0.427734 -0.769273,1.162788 -1.294913,1.706261 -0.987916,1.021429 -1.950735,1.522345 -3.192468,1.660912 -0.311071,0.03471 -0.384159,0.03433 -0.75026,-0.0039 z"
       id="path3393"
       transform="matrix(40,0,0,40,0,-960)" /></g><g
     aria-label="Deskflow"
     id="text361"
     style="font-size:4.89585px;-inkscape-font-specification:'sans-serif, Normal';fill:#010101;fill-opacity:0.301961;stroke-width:0.445777"><path
       d="M 6.7904589,4.5461359 V 1.0700823 h 1.2337542 q 0.5630228,0 0.9400032,0.2350008 0.3769805,0.2301049 0.5630228,0.6266688 0.1909382,0.391668 0.1909382,0.8714613 0,0.5287519 -0.2105216,0.9204199 Q 9.30203,4.1153011 8.9201537,4.3307185 8.5382774,4.5461359 8.0242131,4.5461359 Z M 9.1600503,2.8032132 q 0,-0.3671887 -0.1370838,-0.6462522 Q 8.8907786,1.8730017 8.6361944,1.7163345 8.386506,1.5547714 8.0242131,1.5547714 h -0.685419 v 2.5066753 h 0.685419 q 0.3671888,0 0.6168771,-0.1664589 Q 8.8956744,3.7285289 9.0278624,3.4445696 9.1600503,3.1606103 9.1600503,2.8032132 Z"
       style="font-family:Raleway;-inkscape-font-specification:'Raleway, @wght=600';font-variation-settings:'wght' 600;fill:#00003f;fill-opacity:1"
       id="path424" /><path
       d="m 11.38766,4.5950944 q -0.298647,0 -0.543439,-0.1028128 -0.239897,-0.1077088 -0.416147,-0.2888552 -0.176251,-0.1860423 -0.274168,-0.4210431 -0.09302,-0.2398967 -0.09302,-0.5091684 0,-0.362293 0.166459,-0.6609398 0.166459,-0.3035427 0.465106,-0.4846892 0.298646,-0.1860423 0.700106,-0.1860423 0.40146,0 0.690315,0.1860423 0.293751,0.1811465 0.455314,0.4797933 0.161563,0.2986469 0.161563,0.6413564 0,0.05875 -0.0049,0.1126046 -0.0049,0.048958 -0.0098,0.083229 h -2.051362 q 0.01469,0.2252091 0.122397,0.3965639 0.112604,0.1664589 0.283959,0.2643759 0.171355,0.093021 0.367189,0.093021 0.215417,0 0.406355,-0.1077087 0.195834,-0.1077087 0.264376,-0.2839593 l 0.46021,0.132188 q -0.08323,0.1860423 -0.254584,0.3378136 -0.166459,0.1468755 -0.396564,0.2350009 -0.230105,0.083229 -0.499377,0.083229 z M 10.619012,3.0871725 h 1.547089 Q 12.151413,2.8668593 12.038808,2.7004004 11.9311,2.5290456 11.759745,2.4360245 11.593286,2.3381075 11.38766,2.3381075 q -0.20073,0 -0.372084,0.097917 -0.166459,0.093021 -0.274168,0.2643759 -0.107709,0.1664589 -0.122396,0.3867721 z"
       style="font-family:Raleway;-inkscape-font-specification:'Raleway, @wght=600';font-variation-settings:'wght' 600;fill:#00003f;fill-opacity:1"
       id="path426" /><path
       d="m 14.050999,4.5950944 q -0.323126,0 -0.611981,-0.1028128 -0.288855,-0.1077088 -0.494481,-0.3182303 l 0.20073,-0.3622929 q 0.220313,0.195834 0.440626,0.2839593 0.22521,0.088125 0.445523,0.088125 0.225209,0 0.367189,-0.08323 0.141979,-0.088125 0.141979,-0.2545842 0,-0.1223962 -0.07344,-0.1811464 -0.07344,-0.05875 -0.215418,-0.1028129 -0.137084,-0.044063 -0.332918,-0.097917 -0.274167,-0.083229 -0.46021,-0.1713547 -0.186042,-0.093021 -0.279063,-0.2252092 -0.09302,-0.1321879 -0.09302,-0.3378136 0,-0.2496884 0.127292,-0.425939 0.127292,-0.1762506 0.352501,-0.2692717 0.230105,-0.093021 0.528752,-0.093021 0.279063,0 0.514064,0.088125 0.239897,0.08323 0.421043,0.2643759 l -0.230105,0.3573971 q -0.171354,-0.1566672 -0.352501,-0.230105 -0.17625,-0.073438 -0.381876,-0.073438 -0.117501,0 -0.225209,0.029375 -0.107709,0.024479 -0.181147,0.097917 -0.06854,0.068542 -0.06854,0.195834 0,0.1028128 0.05875,0.1664589 0.05875,0.063646 0.17625,0.1077087 0.117501,0.044063 0.288855,0.097917 0.298647,0.088125 0.509169,0.1762506 0.210521,0.083229 0.323126,0.2203133 0.1175,0.1321879 0.1175,0.3671887 0,0.3720846 -0.279063,0.5826062 -0.274168,0.2056257 -0.734378,0.2056257 z"
       style="font-family:Raleway;-inkscape-font-specification:'Raleway, @wght=600';font-variation-settings:'wght' 600;fill:#00003f;fill-opacity:1"
       id="path428" /><path
       d="M 17.32632,4.5461359 16.503817,3.366236 16.082774,3.7676957 V 4.5461359 H 15.54423 V 0.97216527 h 0.538544 V 3.2242564 L 17.26757,1.9905021 h 0.57771 l -0.993858,1.0721912 1.047712,1.4834426 z"
       style="font-family:Raleway;-inkscape-font-specification:'Raleway, @wght=600';font-variation-settings:'wght' 600;fill:#00003f;fill-opacity:1"
       id="path430" /><path
       d="m 20.434806,4.5804069 q -0.279064,0 -0.435731,-0.1468756 Q 19.842408,4.28176 19.842408,4.0271758 V 1.9219602 q 0,-0.1370838 -0.03917,-0.2594801 -0.03917,-0.1223962 -0.137084,-0.2007298 -0.09792,-0.078334 -0.283959,-0.078334 -0.166459,0 -0.269272,0.078334 -0.102812,0.078334 -0.151771,0.2154174 -0.04896,0.132188 -0.05385,0.3084386 v 0.063646 h 0.470001 V 2.4653996 H 18.907301 V 4.5461359 H 18.368757 V 2.4653996 H 18.026048 V 2.0492523 h 0.342709 V 1.9023768 q 0,-0.3084386 0.117501,-0.523856 0.1175,-0.2203132 0.342709,-0.3378136 0.225209,-0.11750043 0.543439,-0.11750043 0.514065,0 0.758857,0.24968833 0.249689,0.2447925 0.249689,0.6364606 v 1.9877151 q 0,0.1860423 0.05385,0.2447925 0.05875,0.05875 0.146875,0.05875 0.09792,0 0.190939,-0.024479 0.09792,-0.024479 0.146875,-0.044063 l 0.07833,0.4357307 q -0.05385,0.024479 -0.151772,0.048959 -0.09792,0.024479 -0.205625,0.044063 -0.107709,0.019583 -0.205626,0.019583 z"
       style="font-family:Raleway;-inkscape-font-specification:'Raleway, @wght=600';font-variation-settings:'wght' 600;fill:#00003f;fill-opacity:1"
       id="path432" /><path
       d="m 22.456788,4.5950944 q -0.303543,0 -0.54344,-0.1028128 Q 21.673452,4.3845728 21.497201,4.1985305 21.325846,4.0124882 21.232825,3.7774874 21.139804,3.5375908 21.139804,3.268319 q 0,-0.2692718 0.09302,-0.5091684 0.09302,-0.2398967 0.264376,-0.4210431 0.176251,-0.1860423 0.416147,-0.2888552 0.244793,-0.1077087 0.54344,-0.1077087 0.298646,0 0.538543,0.1077087 0.244793,0.1028129 0.416147,0.2888552 0.176251,0.1811464 0.269272,0.4210431 0.09302,0.2398966 0.09302,0.5091684 0,0.2692718 -0.09302,0.5091684 -0.09302,0.2350008 -0.269272,0.4210431 -0.171354,0.1860423 -0.416147,0.2937511 -0.239897,0.1028128 -0.538543,0.1028128 z M 21.693035,3.2732149 q 0,0.2447925 0.102813,0.4406265 0.102813,0.195834 0.274167,0.3084385 0.171355,0.1126046 0.386773,0.1126046 0.210521,0 0.381876,-0.1126046 0.17625,-0.1175004 0.279063,-0.3133344 0.102813,-0.2007298 0.102813,-0.4406265 0,-0.2447925 -0.102813,-0.4406265 -0.102813,-0.195834 -0.279063,-0.3084386 -0.171355,-0.1175004 -0.381876,-0.1175004 -0.215418,0 -0.386773,0.1175004 -0.171354,0.1175004 -0.274167,0.3133344 -0.102813,0.1909382 -0.102813,0.4406266 z"
       style="font-family:Raleway;-inkscape-font-specification:'Raleway, @wght=600';font-variation-settings:'wght' 600;fill:#00003f;fill-opacity:1"
       id="path434" /><path
       d="m 27.356476,1.9856063 h 0.514064 l -1.077087,2.5605296 h -0.46021 l -0.46021,-1.1554206 -0.460209,1.1554206 h -0.46021 L 23.870631,1.9856063 h 0.514064 l 0.822503,2.0366736 0.362293,-0.9448991 -0.440627,-1.0868787 h 0.455314 l 0.288855,0.7980236 0.28396,-0.7980236 h 0.455314 l -0.435731,1.0868787 0.362293,0.9448991 z"
       style="font-family:Raleway;-inkscape-font-specification:'Raleway, @wght=600';font-variation-settings:'wght' 600;fill:#00003f;fill-opacity:1"
       id="path436" /></g></svg>
