<?xml version="1.0" encoding="UTF-8" standalone="no"?>
<svg
   height="22"
   viewBox="0 -960 880 880"
   width="22"
   fill="#e8eaed"
   version="1.1"
   id="svg58"
   sodipodi:docname="deskflow-icon-pad-mono-dark.svg"
   inkscape:version="1.2.2 (b0a8486541, 2022-12-01)"
   inkscape:export-filename="deskflow-icon-pad-mono-dark-64.png"
   inkscape:export-xdpi="279.27274"
   inkscape:export-ydpi="279.27274"
   xml:space="preserve"
   xmlns:inkscape="http://www.inkscape.org/namespaces/inkscape"
   xmlns:sodipodi="http://sodipodi.sourceforge.net/DTD/sodipodi-0.dtd"
   xmlns="http://www.w3.org/2000/svg"
   xmlns:svg="http://www.w3.org/2000/svg"><defs
     id="defs62" /><sodipodi:namedview
     id="namedview60"
     pagecolor="#ffffff"
     bordercolor="#000000"
     borderopacity="0.25"
     inkscape:showpageshadow="2"
     inkscape:pageopacity="0.0"
     inkscape:pagecheckerboard="true"
     inkscape:deskcolor="#d1d1d1"
     showgrid="false"
     inkscape:zoom="23.039896"
     inkscape:cx="-0.86805947"
     inkscape:cy="13.194504"
     inkscape:window-width="1920"
     inkscape:window-height="1011"
     inkscape:window-x="0"
     inkscape:window-y="0"
     inkscape:window-maximized="1"
     inkscape:current-layer="svg58" /><path
     d="m 124.6031,-454.88062 q -4.51858,-7.51378 -7.22973,-15.6537 -2.71115,-8.13993 -2.71115,-18.15828 0,-10.01837 3.163,-20.03674 3.16301,-10.01836 8.58532,-17.53213 39.7635,-51.34413 81.33443,-75.7639 41.57094,-24.41977 87.66049,-24.41977 33.43751,0 70.48984,13.77526 37.05233,13.77526 95.79386,47.58723 51.51188,28.80281 79.07518,40.07347 27.56331,11.27065 51.05992,11.27065 30.72635,0 57.386,-18.78442 26.65964,-18.78444 53.77108,-58.85791 5.42231,-7.51376 12.65205,-11.89681 7.22973,-4.38303 14.45947,-4.38303 7.22973,0 13.10383,3.75689 5.87421,3.75689 11.29653,10.01836 5.42223,7.51378 8.13339,16.906 2.71116,9.39222 2.71116,19.41058 0,10.01836 -2.71116,18.78444 -2.71116,8.76607 -7.22974,16.27984 -37.05232,55.10102 -77.71956,82.02537 -40.66724,26.92436 -85.85305,26.92436 -31.63,0 -66.42313,-13.14911 -34.79304,-13.1491 -90.82341,-45.70879 -54.22294,-31.30739 -83.14188,-42.57806 -28.91894,-11.27065 -55.12671,-11.27065 -31.63003,0 -61.00082,18.15829 -29.37077,18.15828 -59.1934,55.72716 -5.42229,6.26147 -11.74831,10.01835 -6.32601,3.75689 -13.55575,3.75689 -7.22971,0 -14.00758,-3.75689 -6.77788,-3.75688 -12.20017,-12.52295 z m 0,244.19766 q -4.51858,-7.51378 -7.22973,-15.6537 -2.71115,-8.13992 -2.71115,-18.15828 0,-10.01837 3.163,-20.03673 3.16301,-10.01836 8.58532,-17.53214 39.7635,-51.34413 80.88258,-75.76389 41.11907,-24.41977 87.2086,-24.41977 33.4375,0 71.39358,13.77525 37.95608,13.77526 95.79386,47.58724 51.51188,28.8028 78.62331,40.07346 27.11152,11.27067 50.60814,11.27067 30.72633,0 58.28966,-18.78444 27.56339,-18.78443 53.77108,-58.8579 5.42231,-7.51377 12.20018,-11.27066 6.77786,-3.75689 14.00758,-3.75689 7.22974,0 13.10393,3.13075 5.87411,3.13073 11.29643,9.39221 5.42232,7.51378 8.58528,17.53213 3.16303,10.01838 3.16303,20.03674 0,10.01837 -2.71116,18.1583 -2.71116,8.13991 -7.22974,15.65369 -37.05232,55.10101 -77.71956,82.02537 -40.66724,26.92435 -85.85305,26.92435 -31.63,0 -66.42313,-13.1491 -34.79304,-13.1491 -91.72716,-45.70879 -54.22295,-31.3074 -83.14188,-42.57805 -28.91885,-11.27067 -54.22296,-11.27067 -31.63003,0 -61.90454,18.78443 -30.27448,18.78444 -59.1934,56.35331 -5.42229,6.26148 -11.7483,9.39222 -6.32601,3.13074 -12.65204,3.13074 -7.22971,0 -14.45944,-3.75689 -7.22974,-3.75689 -11.74832,-12.52296 z m 0,-488.39532 q -4.51858,-7.51378 -7.22973,-15.6537 -2.71115,-8.13992 -2.71115,-18.15829 0,-10.01837 3.163,-20.03673 3.16301,-10.01837 8.58532,-17.53214 39.7635,-51.34412 80.88258,-75.76389 41.11907,-24.41977 87.2086,-24.41977 33.4375,0 71.39358,13.77526 37.95608,13.77524 95.79386,47.58723 51.51188,28.80281 78.62331,40.07346 27.11152,11.27066 50.60814,11.27066 30.72633,0 58.28966,-18.78444 27.56339,-18.78443 53.77108,-58.85789 5.42231,-8.76608 12.20018,-12.52296 6.77786,-3.75688 14.00758,-3.75688 7.22974,0 13.5558,3.75688 6.326,3.75688 11.74831,10.01837 5.42223,7.51378 8.13339,16.906 2.71116,9.3922 2.71116,19.41058 0,10.01836 -2.71116,18.78444 -2.71116,8.76606 -7.22974,16.27984 -37.05232,55.10101 -77.26769,82.02536 -40.21535,26.92436 -86.30492,26.92436 -31.63,0 -66.42313,-12.52295 -34.79304,-12.52296 -90.82341,-45.08264 -54.22295,-31.30739 -83.14188,-42.57807 -28.91894,-11.27066 -55.12671,-11.27066 -31.63003,0 -61.90454,18.15829 -30.27448,18.15829 -59.1934,55.72716 -5.42229,6.26148 -11.7483,9.39222 -6.32601,3.13074 -12.65204,3.13074 -7.22971,0 -14.45944,-3.75689 -7.22974,-3.75689 -11.74831,-12.52295 z"
     id="path56"
     style="stroke-width:1.06382;fill:#f2f2f2" /></svg>
