<?xml version="1.0" encoding="UTF-8" standalone="no"?>
<svg
   height="22"
   viewBox="0 -960 880 880"
   width="22"
   fill="#e8eaed"
   version="1.1"
   id="svg58"
   sodipodi:docname="deskflow-icon-pad-mono-light.svg"
   inkscape:version="1.2.2 (b0a8486541, 2022-12-01)"
   inkscape:export-filename="deskflow-icon-pad-mono-light-64.png"
   inkscape:export-xdpi="279.27274"
   inkscape:export-ydpi="279.27274"
   xml:space="preserve"
   xmlns:inkscape="http://www.inkscape.org/namespaces/inkscape"
   xmlns:sodipodi="http://sodipodi.sourceforge.net/DTD/sodipodi-0.dtd"
   xmlns="http://www.w3.org/2000/svg"
   xmlns:svg="http://www.w3.org/2000/svg"><defs
     id="defs62" /><sodipodi:namedview
     id="namedview60"
     pagecolor="#ffffff"
     bordercolor="#000000"
     borderopacity="0.25"
     inkscape:showpageshadow="2"
     inkscape:pageopacity="0.0"
     inkscape:pagecheckerboard="true"
     inkscape:deskcolor="#d1d1d1"
     showgrid="false"
     inkscape:zoom="23.039896"
     inkscape:cx="-0.86805947"
     inkscape:cy="13.194504"
     inkscape:window-width="1920"
     inkscape:window-height="1011"
     inkscape:window-x="0"
     inkscape:window-y="0"
     inkscape:window-maximized="1"
     inkscape:current-layer="svg58" /><path
     d="m 124.6031,-454.88062 q -4.51858,-7.51378 -7.22973,-15.6537 -2.71115,-8.13993 -2.71115,-18.15828 0,-10.01837 3.163,-20.03674 3.16301,-10.01836 8.58532,-17.53213 39.7635,-51.34413 81.33443,-75.7639 41.57094,-24.41977 87.66049,-24.41977 33.43751,0 70.48984,13.77526 37.05233,13.77526 95.79386,47.58723 51.51188,28.80281 79.07518,40.07347 27.56331,11.27065 51.05992,11.27065 30.72635,0 57.386,-18.78442 26.65964,-18.78444 53.77108,-58.85791 5.42231,-7.51376 12.65205,-11.89681 7.22973,-4.38303 14.45947,-4.38303 7.22973,0 13.10383,3.75689 5.87421,3.75689 11.29653,10.01836 5.42223,7.51378 8.13339,16.906 2.71116,9.39222 2.71116,19.41058 0,10.01836 -2.71116,18.78444 -2.71116,8.76607 -7.22974,16.27984 -37.05232,55.10102 -77.71956,82.02537 -40.66724,26.92436 -85.85305,26.92436 -31.63,0 -66.42313,-13.14911 -34.79304,-13.1491 -90.82341,-45.70879 -54.22294,-31.30739 -83.14188,-42.57806 -28.91894,-11.27065 -55.12671,-11.27065 -31.63003,0 -61.00082,18.15829 -29.37077,18.15828 -59.1934,55.72716 -5.42229,6.26147 -11.74831,10.01835 -6.32601,3.75689 -13.55575,3.75689 -7.22971,0 -14.00758,-3.75689 -6.77788,-3.75688 -12.20017,-12.52295 z m 0,244.19766 q -4.51858,-7.51378 -7.22973,-15.6537 -2.71115,-8.13992 -2.71115,-18.15828 0,-10.01837 3.163,-20.03673 3.16301,-10.01836 8.58532,-17.53214 39.7635,-51.34413 80.88258,-75.76389 41.11907,-24.41977 87.2086,-24.41977 33.4375,0 71.39358,13.77525 37.95608,13.77526 95.79386,47.58724 51.51188,28.8028 78.62331,40.07346 27.11152,11.27067 50.60814,11.27067 30.72633,0 58.28966,-18.78444 27.56339,-18.78443 53.77108,-58.8579 5.42231,-7.51377 12.20018,-11.27066 6.77786,-3.75689 14.00758,-3.75689 7.22974,0 13.10393,3.13075 5.87411,3.13073 11.29643,9.39221 5.42232,7.51378 8.58528,17.53213 3.16303,10.01838 3.16303,20.03674 0,10.01837 -2.71116,18.1583 -2.71116,8.13991 -7.22974,15.65369 -37.05232,55.10101 -77.71956,82.02537 -40.66724,26.92435 -85.85305,26.92435 -31.63,0 -66.42313,-13.1491 -34.79304,-13.1491 -91.72716,-45.70879 -54.22295,-31.3074 -83.14188,-42.57805 -28.91885,-11.27067 -54.22296,-11.27067 -31.63003,0 -61.90454,18.78443 -30.27448,18.78444 -59.1934,56.35331 -5.42229,6.26148 -11.7483,9.39222 -6.32601,3.13074 -12.65204,3.13074 -7.22971,0 -14.45944,-3.75689 -7.22974,-3.75689 -11.74832,-12.52296 z m 0,-488.39532 q -4.51858,-7.51378 -7.22973,-15.6537 -2.71115,-8.13992 -2.71115,-18.15829 0,-10.01837 3.163,-20.03673 3.16301,-10.01837 8.58532,-17.53214 39.7635,-51.34412 80.88258,-75.76389 41.11907,-24.41977 87.2086,-24.41977 33.4375,0 71.39358,13.77526 37.95608,13.77524 95.79386,47.58723 51.51188,28.80281 78.62331,40.07346 27.11152,11.27066 50.60814,11.27066 30.72633,0 58.28966,-18.78444 27.56339,-18.78443 53.77108,-58.85789 5.42231,-8.76608 12.20018,-12.52296 6.77786,-3.75688 14.00758,-3.75688 7.22974,0 13.5558,3.75688 6.326,3.75688 11.74831,10.01837 5.42223,7.51378 8.13339,16.906 2.71116,9.3922 2.71116,19.41058 0,10.01836 -2.71116,18.78444 -2.71116,8.76606 -7.22974,16.27984 -37.05232,55.10101 -77.26769,82.02536 -40.21535,26.92436 -86.30492,26.92436 -31.63,0 -66.42313,-12.52295 -34.79304,-12.52296 -90.82341,-45.08264 -54.22295,-31.30739 -83.14188,-42.57807 -28.91894,-11.27066 -55.12671,-11.27066 -31.63003,0 -61.90454,18.15829 -30.27448,18.15829 -59.1934,55.72716 -5.42229,6.26148 -11.7483,9.39222 -6.32601,3.13074 -12.65204,3.13074 -7.22971,0 -14.45944,-3.75689 -7.22974,-3.75689 -11.74831,-12.52295 z"
     id="path56"
     style="stroke-width:1.06382" /><path
     style="font-variation-settings:'wght' 600;fill:#1a1a1a;stroke-width:0.0434713;fill-opacity:1"
     d="M 14.30128,7.5093503 C 13.433459,7.3995885 12.484613,7.0158502 11.016793,6.1810174 9.0341115,5.0533538 8.3132003,4.7707105 7.4219085,4.7715932 6.7757208,4.7722331 6.268081,4.9331567 5.674736,5.3254527 5.3634161,5.531285 4.8321035,6.034712 4.507671,6.4312651 4.1488968,6.869794 3.838899,6.9937651 3.4816946,6.8415621 3.2920377,6.7607501 3.1743428,6.6235898 3.0298653,6.3150048 2.9242316,6.0893851 2.9081338,6.0026838 2.9090091,5.6640881 2.910246,5.1856297 3.0103551,4.9387698 3.3856333,4.4887755 4.614613,3.0151116 5.7734921,2.3382526 7.1831921,2.2707598 c 1.1552748,-0.055312 2.1233365,0.2729491 4.1883869,1.4202426 2.18767,1.215418 2.900148,1.4731025 3.731245,1.3494922 0.877998,-0.1305858 1.573598,-0.6430755 2.357249,-1.7367225 0.346388,-0.4834127 0.492051,-0.5824789 0.820299,-0.5578933 0.666398,0.049913 1.03143,0.9778619 0.712573,1.8114334 C 18.7813,5.1106035 17.710063,6.3333788 17.022326,6.806697 16.195805,7.3755294 15.225096,7.6261946 14.30128,7.5093503 Z"
     id="path4223"
     transform="matrix(40,0,0,40,0,-960)" /><path
     style="font-variation-settings:'wght' 600;fill:#1a1a1a;fill-opacity:1;stroke-width:0.0434713"
     d="M 14.062563,13.578147 C 13.221565,13.420505 12.603853,13.139109 10.373311,11.897521 9.4253299,11.369846 8.7620387,11.0704 8.2379061,10.933483 7.812971,10.822478 7.1059447,10.813019 6.7274609,10.913276 6.1112577,11.076501 5.4899964,11.483446 4.904536,12.107348 4.1976604,12.860637 4.0752799,12.970347 3.9065642,13.001999 3.5512241,13.068661 3.2250494,12.851824 3.0218222,12.413833 2.9291918,12.214198 2.9105567,12.109787 2.9093935,11.783907 c -0.0012,-0.335669 0.01513,-0.42589 0.1160555,-0.64127 C 3.1785779,10.815853 3.5470908,10.36924 4.107906,9.8307735 4.831736,9.1357882 5.4999408,8.7286837 6.294219,8.49876 6.5956577,8.411501 6.7364916,8.3984754 7.3785055,8.3984754 c 0.6366192,0 0.7909437,0.014031 1.1248328,0.1022711 0.7589791,0.2005818 1.457872,0.5170311 2.8682407,1.2987007 1.080749,0.5989838 2.042664,1.0694558 2.47397,1.2100168 0.466793,0.152127 1.190791,0.189705 1.566117,0.08129 0.6758,-0.195213 1.337915,-0.728097 1.982697,-1.5957158 0.291476,-0.3922106 0.382545,-0.4837262 0.57513,-0.5779489 0.292931,-0.1433178 0.469526,-0.1158067 0.730348,0.1137788 0.285018,0.2508827 0.394249,0.5336295 0.392858,1.0169229 -8.33e-4,0.289031 -0.02356,0.444805 -0.08739,0.598933 -0.217409,0.52495 -1.211769,1.692597 -1.831369,2.150525 -0.538715,0.398148 -1.067155,0.644962 -1.641359,0.766616 -0.330833,0.07009 -1.130815,0.07787 -1.470014,0.01428 z"
     id="path4588"
     transform="matrix(40,0,0,40,0,-960)" /><path
     style="font-variation-settings:'wght' 600;fill:#1a1a1a;fill-opacity:1;stroke-width:0.0434713"
     d="M 14.066777,19.678621 C 13.303654,19.540811 12.40229,19.147771 10.850743,18.276269 9.3286958,17.421336 8.6511727,17.118221 7.9714783,16.988121 7.30725,16.860982 6.7826987,16.941208 6.1198193,17.271317 5.5918584,17.534237 5.1837912,17.870646 4.6248613,18.503756 4.3967363,18.762158 4.1726569,18.994441 4.1269073,19.019942 3.8663887,19.165154 3.5082308,19.128348 3.2996359,18.934928 3.1156587,18.764335 2.922951,18.313093 2.8972296,17.992659 2.8662411,17.606607 2.99738,17.191742 3.2554549,16.859392 3.8580613,16.083354 4.6961615,15.332326 5.3441955,14.987655 6.1236965,14.573061 6.9844847,14.399393 7.80327,14.491527 c 1.0071331,0.113327 1.8252066,0.43457 3.513305,1.379612 0.981604,0.549527 1.889962,1.012575 2.270571,1.157455 0.903401,0.343881 1.622815,0.323271 2.380199,-0.06819 0.275212,-0.142246 0.447765,-0.277215 0.7896,-0.617619 0.240585,-0.239578 0.549022,-0.595983 0.685417,-0.792011 0.287347,-0.412979 0.440183,-0.536729 0.698899,-0.56589 0.556798,-0.06276 0.955879,0.449113 0.955948,1.226126 3.8e-5,0.433044 -0.104386,0.675873 -0.539715,1.255064 -1.336976,1.778799 -2.827097,2.512972 -4.490717,2.212546 z"
     id="path4590"
     transform="matrix(40,0,0,40,0,-960)" /></svg>
