<?xml version="1.0" encoding="UTF-8" standalone="no"?>
<svg
   height="20.18"
   viewBox="0 -960 807.20001 807.20001"
   width="20.18"
   fill="#e8eaed"
   version="1.1"
   id="svg58"
   sodipodi:docname="deskflow-icon-fit.svg"
   inkscape:version="1.2.2 (b0a8486541, 2022-12-01)"
   inkscape:export-filename="deskflow-icon-fit-16.png"
   inkscape:export-xdpi="76.114967"
   inkscape:export-ydpi="76.114967"
   xmlns:inkscape="http://www.inkscape.org/namespaces/inkscape"
   xmlns:sodipodi="http://sodipodi.sourceforge.net/DTD/sodipodi-0.dtd"
   xmlns="http://www.w3.org/2000/svg"
   xmlns:svg="http://www.w3.org/2000/svg">
  <defs
     id="defs62" />
  <sodipodi:namedview
     id="namedview60"
     pagecolor="#ffffff"
     bordercolor="#000000"
     borderopacity="0.25"
     inkscape:showpageshadow="2"
     inkscape:pageopacity="0.0"
     inkscape:pagecheckerboard="true"
     inkscape:deskcolor="#d1d1d1"
     showgrid="false"
     inkscape:zoom="32.583333"
     inkscape:cx="3.1150895"
     inkscape:cy="10.987212"
     inkscape:window-width="1920"
     inkscape:window-height="1011"
     inkscape:window-x="0"
     inkscape:window-y="0"
     inkscape:window-maximized="1"
     inkscape:current-layer="svg58"
     showguides="false" />
  <path
     d="m 40.723125,-481.64882 q -5.19881,-8.6449 -8.31809,-18.01021 -3.11929,-9.36531 -3.11929,-20.89184 0,-11.52653 3.63917,-23.05307 3.63916,-11.52653 9.87774,-20.17143 45.74952,-59.07349 93.578565,-87.16942 47.82904,-28.09593 100.85689,-28.09593 38.47119,0 81.10142,15.84899 42.63025,15.84898 110.21475,54.75103 59.26643,33.13879 90.97916,46.10614 31.71274,12.96735 58.74655,12.96735 35.3519,0 66.02487,-21.61225 30.67298,-21.61225 61.86583,-67.71839 6.23857,-8.6449 14.55667,-13.68776 8.31809,-5.04286 16.63619,-5.04286 8.31809,0 15.07654,4.32245 6.75846,4.32245 12.99703,11.52654 6.23857,8.6449 9.35785,19.45102 3.11929,10.80613 3.11929,22.33267 0,11.52653 -3.11929,21.61225 -3.11928,10.08572 -8.31809,18.73062 -42.63024,63.39594 -89.41952,94.3735 -46.78928,30.97756 -98.77737,30.97756 -36.39167,0 -76.4225,-15.12858 -40.03083,-15.12857 -104.49606,-52.58981 -62.38571,-36.02042 -95.65809,-48.98777 -33.27238,-12.96735 -63.42547,-12.96735 -36.39166,0 -70.18392,20.89184 -33.79226,20.89184 -68.104395,64.11635 -6.23857,7.20408 -13.51691,11.52653 -7.27833,4.32245 -15.59643,4.32245 -8.31809,0 -16.1163,-4.32245 -7.79822,-4.32245 -14.03679,-14.40817 z m 0,280.95928 q -5.19881,-8.6449 -8.31809,-18.01021 -3.11929,-9.36531 -3.11929,-20.89184 0,-11.52654 3.63917,-23.05307 3.63916,-11.52653 9.87774,-20.17143 45.74952,-59.07349 93.058685,-87.16942 47.30916,-28.09593 100.33701,-28.09593 38.47118,0 82.14118,15.84898 43.67001,15.84899 110.21475,54.75104 59.26643,33.13879 90.45928,46.10614 31.19286,12.96735 58.22667,12.96735 35.3519,0 67.06463,-21.61225 31.71274,-21.61225 61.86583,-67.71839 6.23857,-8.6449 14.03679,-12.96735 7.79821,-4.32245 16.11631,-4.32245 8.31809,0 15.07654,3.60204 6.75845,3.60204 12.99702,10.80613 6.23858,8.6449 9.87774,20.17143 3.63917,11.52654 3.63917,23.05307 0,11.52654 -3.11929,20.89185 -3.11928,9.3653 -8.31809,18.01021 -42.63024,63.39594 -89.41952,94.3735 -46.78928,30.97756 -98.77737,30.97756 -36.39167,0 -76.4225,-15.12858 -40.03083,-15.12857 -105.53582,-52.58981 -62.38571,-36.02042 -95.65809,-48.98777 -33.27238,-12.96735 -62.38571,-12.96735 -36.39166,0 -71.22369,21.61225 -34.83202,21.61225 -68.104395,64.83675 -6.23857,7.20409 -13.5169,10.80613 -7.27833,3.60204 -14.55667,3.60204 -8.31809,0 -16.63618,-4.32245 -8.3181,-4.32245 -13.51691,-14.40817 z m 0,-561.91855 q -5.19881,-8.64491 -8.31809,-18.01021 -3.11929,-9.36531 -3.11929,-20.89185 0,-11.52653 3.63917,-23.05307 3.63916,-11.52653 9.87774,-20.17143 45.74952,-59.07349 93.058685,-87.16942 Q 183.1705,-960 236.19836,-960 q 38.47117,0 82.14117,15.84899 43.67001,15.84898 110.21475,54.75104 59.26643,33.13878 90.45928,46.10613 31.19286,12.96735 58.22667,12.96735 35.3519,0 67.06463,-21.61225 31.71274,-21.61225 61.86583,-67.71839 6.23857,-10.08572 14.03679,-14.40817 7.79821,-4.32245 16.11631,-4.32245 8.31809,0 15.59642,4.32245 7.27834,4.32245 13.51691,11.52654 6.23857,8.6449 9.35785,19.45103 3.11929,10.80612 3.11929,22.33266 0,11.52653 -3.11929,21.61225 -3.11928,10.08572 -8.31809,18.73062 -42.63024,63.39594 -88.89964,94.3735 -46.2694,30.97756 -99.29725,30.97756 -36.39167,0 -76.4225,-14.40817 -40.03083,-14.40817 -104.49606,-51.8694 -62.38571,-36.02042 -95.65809,-48.98778 -33.27238,-12.96735 -63.42547,-12.96735 -36.39166,0 -71.22369,20.89185 -34.83202,20.89184 -68.104395,64.11635 -6.23857,7.20408 -13.5169,10.80612 -7.27833,3.60204 -14.55667,3.60204 -8.31809,0 -16.63618,-4.32245 -8.3181,-4.32245 -13.51691,-14.40816 z"
     id="path56"
     style="stroke-width:1.22397" />
  <path
     style="fill:#33cc99;fill-opacity:1;stroke-width:1.50257"
     d="m 547.17985,-718.39846 c -39.07932,-6.57085 -73.67394,-20.99587 -140.9536,-58.77381 -97.41981,-54.70183 -119.57526,-63.7419 -160.36641,-65.43419 -17.2441,-0.71541 -25.47887,-0.25858 -35.67406,1.97902 -34.75246,7.62733 -70.49609,32.30217 -102.73741,70.92249 -14.566977,17.4491 -18.723427,20.8451 -29.169337,23.83265 -18.60835,5.32206 -35.19782,-7.00114 -44.43783,-33.00987 -3.62979,-10.2171 -3.90112,-12.22024 -3.37174,-24.89238 0.83971,-20.10038 5.7252,-31.96262 20.7599,-50.40614 70.855537,-86.92063 147.446917,-119.56378 233.005117,-99.30647 37.94495,8.98409 73.60092,24.96141 144.87526,64.91812 83.03397,46.54923 112.97316,58.33211 148.06633,58.27307 45.95543,-0.0772 82.24279,-23.32691 121.71506,-77.98382 17.63872,-24.42418 23.0155,-28.53594 37.34857,-28.56142 8.623,-0.0154 10.75854,0.70208 18.90853,6.35203 14.43597,10.00769 21.78975,26.74573 21.78975,49.59592 0,19.33515 -3.49152,28.6528 -19.03068,50.7874 -61.75524,87.96609 -131.62998,125.00697 -210.72745,111.7074 z"
     id="path970" />
  <path
     style="fill:#33b2cc;fill-opacity:1;stroke-width:1.50257"
     d="m 553.60067,-436.45696 c -37.22585,-5.24164 -78.06299,-22.41773 -153.17206,-64.42422 -74.28657,-41.54648 -97.22788,-52.22074 -127.64341,-59.39065 -13.57029,-3.19896 -19.39001,-3.63218 -38.93124,-2.89806 -19.53884,0.73401 -24.94353,1.57603 -36.12991,5.62876 -31.4603,11.39772 -60.67994,33.6603 -89.67419,68.32318 -19.317422,23.09411 -32.563922,29.26939 -49.332782,22.99803 -10.73217,-4.01377 -24.17224,-23.58922 -27.32096,-39.79299 -2.12519,-10.93667 -0.91265,-28.80988 2.64998,-39.06135 8.15918,-23.47794 50.67907,-69.44576 88.146102,-95.29378 53.69382,-37.04271 110.59472,-46.77369 172.29238,-29.46482 35.38687,9.92757 59.87709,21.23631 133.55923,61.67301 53.69987,29.47047 87.13175,45.70415 108.38789,52.63056 17.25302,5.62207 48.01221,7.68745 64.5935,4.33743 32.80078,-6.62677 62.14578,-29.0977 94.85186,-72.63267 17.31607,-23.04944 23.6624,-28.78002 35.24243,-31.8232 17.42928,-4.58065 36.82487,10.97262 43.24931,34.68075 2.23507,8.24867 2.73624,13.2403 2.38023,23.71377 -0.62594,18.41473 -4.04135,27.18464 -18.85837,48.41836 -41.26104,59.13037 -90.1711,97.1873 -140.24166,109.12199 -17.53076,4.17837 -46.8943,5.67105 -64.04854,3.25567 z"
     id="path1767" />
  <path
     style="fill:#4c33cc;fill-opacity:1;stroke-width:1.50257"
     d="m 557.389,-155.18186 c -40.07333,-4.60542 -76.71154,-19.76541 -161.61018,-66.86975 -71.57911,-39.71421 -95.82462,-50.82769 -126.25256,-57.87058 -16.56713,-3.83487 -44.75224,-3.90346 -60.01213,-0.14408 -34.18541,8.41679 -69.09819,33.00347 -100.76373,70.9611 -16.937245,20.30278 -22.678385,24.37285 -35.740145,25.33716 -13.89147,1.02586 -22.54647,-3.41589 -30.47851,-15.64133 -8.1674,-12.59021 -11.49767,-23.06471 -12.04851,-37.89758 -0.91846,-24.73237 6.87247,-40.59801 35.50664,-72.30652 60.013385,-66.45693 126.043905,-95.4906 195.478255,-85.95193 43.71316,6.00521 80.32747,20.63751 154.72654,61.83386 69.8992,38.70472 99.89104,53.41454 122.71398,60.18621 18.1851,5.39557 48.48871,6.69933 63.66088,2.7387 35.51668,-9.27102 60.86653,-28.66522 92.59711,-70.84237 21.23971,-28.23246 25.59049,-31.60581 40.95106,-31.75128 9.39304,-0.0865 11.829,0.5648 18.1438,4.86074 14.69853,10.00198 23.31945,30.49333 22.46859,53.40618 -0.71286,19.19791 -3.90285,26.47962 -23.24429,53.06333 -47.87305,65.79835 -98.52555,100.23584 -157.36912,106.99183 -16.78841,1.92781 -21.15454,1.91571 -38.72768,-0.10374 z"
     id="path2564" />
  <path
     style="fill:#4c33cc;fill-opacity:1;stroke-width:1.22762"
     d="m 557.76908,-155.82649 c -39.75876,-4.86316 -74.1798,-19.09612 -160.982,-66.56536 -94.9146,-51.90564 -117.12116,-60.41984 -157.58576,-60.41984 -21.36496,0 -32.30674,1.8452 -47.66427,8.0378 -27.96098,11.2748 -53.05031,30.7966 -81.79616,63.64504 -20.618322,23.56088 -25.143974,26.52688 -40.476358,26.52688 -12.966152,0 -21.69308,-6.38712 -29.98606,-21.94636 -5.441184,-10.20868 -7.592028,-19.76696 -7.63066,-33.91044 -0.0548,-20.13392 5.057024,-32.391 22.601496,-54.19164 20.634464,-25.64028 46.844442,-49.83 72.332052,-66.75676 55.73762,-37.01628 111.27581,-44.45428 177.6839,-23.79644 28.9835,9.016 57.99318,22.776 123.98978,58.81136 68.09132,37.17912 97.52924,50.89128 119.07928,55.46704 7.78888,1.654 15.72652,2.2048 31.30436,2.1732 19.56684,-0.0399 21.52088,-0.26 31.30432,-3.514 32.10124,-10.67948 54.406,-28.47 84.84996,-67.67732 14.80168,-19.0624 24.51752,-29.19816 29.97868,-31.27448 5.25364,-1.9976 19.9078,-1.4668 24.93468,0.9028 6.20832,2.9264 15.3382,12.3364 19.02128,19.60464 5.46912,10.7928 7.22004,20.29832 6.75292,36.6606 -0.4072,14.26036 -0.5912,15.13892 -5.0704,24.19968 -8.3066,16.80292 -30.56924,46.23908 -51.18704,67.68064 -39.2728,40.84188 -78.74756,61.4932 -127.95292,66.93888 -14.19852,1.5712 -16.05344,1.5384 -33.50108,-0.5956 z"
     id="path3391" />
  <path
     style="fill:#3366cc;fill-opacity:1;stroke-width:1.22762"
     d="m 560.88904,-155.32045 c -40.42264,-4.22132 -75.80404,-18.6894 -164.5676,-67.2946 -65.99828,-36.13936 -92.34196,-48.46632 -120.30692,-56.29508 -10.88347,-3.0468 -13.34323,-3.26564 -36.82864,-3.27632 -22.98024,-0.0104 -25.966,0.24 -34.3734,2.8664 -34.39323,10.75048 -61.91482,30.49736 -95.05444,68.20216 -20.748149,23.60632 -25.193077,26.51584 -40.508941,26.51584 -12.966152,0 -21.69308,-6.38712 -29.98606,-21.94636 -5.441184,-10.2086 -7.592028,-19.76688 -7.63066,-33.91036 -0.05499,-20.13392 5.057024,-32.391 22.601496,-54.19164 25.315072,-31.45636 59.698835,-61.11292 90.659085,-78.19496 31.98834,-17.64932 72.49612,-26.44144 106.49474,-23.11444 48.91212,4.78632 82.43702,17.97124 176.8519,69.55348 75.80692,41.41608 105.16984,54.19968 131.35548,57.18776 53.64556,6.12156 90.25688,-13.04432 135.18244,-70.76752 14.82128,-19.04328 24.53364,-29.16164 29.97868,-31.23184 4.74848,-1.8056 19.6882,-1.4612 24.53864,0.5656 6.40156,2.6748 16.17464,13.18896 20.23008,21.76416 5.06928,10.71896 6.4438,18.88048 5.94868,35.32216 -0.412,13.6828 -0.6352,14.72416 -5.07892,23.71452 -8.45704,17.10936 -30.77092,46.51152 -51.79652,68.25044 -39.51664,40.85716 -78.0294,60.8938 -127.69872,66.43648 -12.44284,1.3884 -15.36636,1.3732 -30.0104,-0.156 z"
     id="path3393" />
</svg>
