<?xml version="1.0" encoding="UTF-8" standalone="no"?>
<svg
   height="20.18"
   viewBox="0 -960 807.20001 807.20001"
   width="20.18"
   fill="#e8eaed"
   version="1.1"
   id="svg58"
   sodipodi:docname="deskflow-icon-mono-dark.svg"
   inkscape:version="1.2.2 (b0a8486541, 2022-12-01)"
   inkscape:export-filename="deskflow.png"
   inkscape:export-xdpi="4000"
   inkscape:export-ydpi="4000"
   xmlns:inkscape="http://www.inkscape.org/namespaces/inkscape"
   xmlns:sodipodi="http://sodipodi.sourceforge.net/DTD/sodipodi-0.dtd"
   xmlns="http://www.w3.org/2000/svg"
   xmlns:svg="http://www.w3.org/2000/svg">
  <defs
     id="defs62" />
  <sodipodi:namedview
     id="namedview60"
     pagecolor="#ffffff"
     bordercolor="#000000"
     borderopacity="0.25"
     inkscape:showpageshadow="2"
     inkscape:pageopacity="0.0"
     inkscape:pagecheckerboard="true"
     inkscape:deskcolor="#d1d1d1"
     showgrid="false"
     inkscape:zoom="32.583333"
     inkscape:cx="7.4271101"
     inkscape:cy="10.987212"
     inkscape:window-width="1920"
     inkscape:window-height="1011"
     inkscape:window-x="0"
     inkscape:window-y="0"
     inkscape:window-maximized="1"
     inkscape:current-layer="svg58" />
  <path
     d="m 40.723131,-482.83328 q -5.19881,-8.6449 -8.31809,-18.01021 -3.11929,-9.36531 -3.11929,-20.89184 0,-11.52653 3.63917,-23.05307 3.63916,-11.52653 9.87774,-20.17143 45.74952,-59.07349 93.578559,-87.16942 47.82904,-28.09593 100.85694,-28.09593 38.4712,0 81.1014,15.84899 42.6302,15.84898 110.2147,54.75103 59.2665,33.13879 90.9792,46.10614 31.7127,12.96735 58.7465,12.96735 35.3519,0 66.0249,-21.61225 30.673,-21.61225 61.8658,-67.71839 6.2386,-8.6449 14.5567,-13.68776 8.3181,-5.04286 16.6362,-5.04286 8.3181,0 15.0765,4.32245 6.7585,4.32245 12.9971,11.52654 6.2385,8.6449 9.3578,19.45102 3.1193,10.80613 3.1193,22.33267 0,11.52653 -3.1193,21.61225 -3.1193,10.08572 -8.3181,18.73062 -42.6302,63.39594 -89.4195,94.3735 -46.7893,30.97756 -98.7774,30.97756 -36.3916,0 -76.4225,-15.12858 -40.0308,-15.12857 -104.496,-52.58981 -62.3857,-36.02042 -95.6581,-48.98777 -33.2724,-12.96735 -63.4255,-12.96735 -36.39163,0 -70.1839,20.89184 -33.79226,20.89184 -68.104399,64.11635 -6.23857,7.20408 -13.51691,11.52653 -7.27833,4.32245 -15.59643,4.32245 -8.31809,0 -16.1163,-4.32245 -7.79822,-4.32245 -14.03679,-14.40817 z m 0,280.95928 q -5.19881,-8.6449 -8.31809,-18.01021 -3.11929,-9.36531 -3.11929,-20.89184 0,-11.52654 3.63917,-23.05307 3.63916,-11.52653 9.87774,-20.17143 45.74952,-59.07349 93.058679,-87.16942 47.30916,-28.09593 100.33702,-28.09593 38.4712,0 82.1412,15.84898 43.67,15.84899 110.2147,54.75104 59.2665,33.13879 90.4593,46.10614 31.1929,12.96735 58.2267,12.96735 35.3519,0 67.0646,-21.61225 31.7128,-21.61225 61.8658,-67.71839 6.2386,-8.6449 14.0368,-12.96735 7.7982,-4.32245 16.1163,-4.32245 8.3181,0 15.0766,3.60204 6.7584,3.60204 12.997,10.80613 6.2386,8.6449 9.8777,20.17143 3.6392,11.52654 3.6392,23.05307 0,11.52654 -3.1193,20.89185 -3.1193,9.3653 -8.3181,18.01021 -42.6302,63.39594 -89.4195,94.3735 -46.7893,30.97756 -98.7774,30.97756 -36.3916,0 -76.4225,-15.12858 -40.0308,-15.12857 -105.5358,-52.58981 -62.3857,-36.02042 -95.6581,-48.98777 -33.2723,-12.96735 -62.3857,-12.96735 -36.39163,0 -71.22367,21.61225 -34.83202,21.61225 -68.104399,64.83675 -6.23857,7.20409 -13.5169,10.80613 -7.27833,3.60204 -14.55667,3.60204 -8.31809,0 -16.63618,-4.32245 -8.3181,-4.32245 -13.51691,-14.40817 z m 0,-561.91855 q -5.19881,-8.64491 -8.31809,-18.01021 -3.11929,-9.36531 -3.11929,-20.89185 0,-11.52653 3.63917,-23.05307 3.63916,-11.52653 9.87774,-20.17143 45.74952,-59.07349 93.058679,-87.16942 47.30916,-28.09593 100.33702,-28.09593 38.4712,0 82.1412,15.84899 43.67,15.84898 110.2147,54.75104 59.2665,33.13878 90.4593,46.10613 31.1929,12.96735 58.2267,12.96735 35.3519,0 67.0646,-21.61225 31.7128,-21.61225 61.8658,-67.71839 6.2386,-10.08572 14.0368,-14.40817 7.7982,-4.32245 16.1163,-4.32245 8.3181,0 15.5965,4.32245 7.2783,4.32245 13.5169,11.52654 6.2385,8.6449 9.3578,19.45103 3.1193,10.80612 3.1193,22.33266 0,11.52653 -3.1193,21.61225 -3.1193,10.08572 -8.3181,18.73062 -42.6302,63.39594 -88.8996,94.3735 -46.2694,30.97756 -99.2973,30.97756 -36.3916,0 -76.4225,-14.40817 -40.0308,-14.40817 -104.496,-51.8694 -62.3857,-36.02042 -95.6581,-48.98778 -33.2724,-12.96735 -63.4255,-12.96735 -36.39163,0 -71.22367,20.89185 -34.83202,20.89184 -68.104399,64.11635 -6.23857,7.20408 -13.5169,10.80612 -7.27833,3.60204 -14.55667,3.60204 -8.31809,0 -16.63618,-4.32245 -8.3181,-4.32245 -13.51691,-14.40816 z"
     id="path56"
     style="stroke-width:1.22397" />
  <path
     style="fill:#f2f2f2;fill-opacity:1;stroke-width:1.50257"
     d="m 547.17989,-719.58292 c -39.0794,-6.57085 -73.674,-20.99587 -140.9536,-58.77381 -97.4199,-54.70183 -119.5753,-63.7419 -160.3665,-65.43419 -17.24405,-0.71541 -25.47882,-0.25858 -35.67401,1.97902 -34.75246,7.62733 -70.49609,32.30217 -102.73741,70.92249 -14.566983,17.4491 -18.723434,20.8451 -29.169344,23.83265 -18.60835,5.32206 -35.19782,-7.00114 -44.43783,-33.00987 -3.62979,-10.2171 -3.90112,-12.22024 -3.37174,-24.89238 0.83971,-20.10038 5.7252,-31.96262 20.7599,-50.40614 70.855544,-86.92063 147.446924,-119.56378 233.005134,-99.30647 37.9449,8.98409 73.6009,24.96141 144.8752,64.91812 83.034,46.54923 112.9732,58.33211 148.0664,58.27307 45.9554,-0.0772 82.2428,-23.32691 121.715,-77.98382 17.6388,-24.42418 23.0155,-28.53594 37.3486,-28.56142 8.623,-0.0154 10.7585,0.70208 18.9085,6.35203 14.436,10.00769 21.7898,26.74573 21.7898,49.59592 0,19.33515 -3.4915,28.6528 -19.0307,50.7874 -61.7552,87.96609 -131.63,125.00697 -210.7274,111.7074 z"
     id="path970" />
  <path
     style="fill:#f2f2f2;fill-opacity:1;stroke-width:1.50257"
     d="m 553.60063,-437.64142 c -37.2258,-5.24164 -78.0629,-22.41773 -153.172,-64.42422 -74.2866,-41.54648 -97.2279,-52.22074 -127.6434,-59.39065 -13.5703,-3.19896 -19.39,-3.63218 -38.9313,-2.89806 -19.5388,0.73401 -24.94349,1.57603 -36.12987,5.62876 -31.4603,11.39772 -60.67994,33.6603 -89.67419,68.32318 -19.317427,23.09411 -32.563927,29.26939 -49.332787,22.99803 -10.73217,-4.01377 -24.17224,-23.58922 -27.32096,-39.79299 -2.12519,-10.93667 -0.91265,-28.80988 2.64998,-39.06135 8.15918,-23.47794 50.67907,-69.44576 88.146107,-95.29378 53.69382,-37.04271 110.59472,-46.77369 172.29242,-29.46482 35.3868,9.92757 59.877,21.23631 133.5592,61.67301 53.6999,29.47047 87.1317,45.70415 108.3879,52.63056 17.253,5.62207 48.0122,7.68745 64.5935,4.33743 32.8008,-6.62677 62.1458,-29.0977 94.8518,-72.63267 17.3161,-23.04944 23.6624,-28.78002 35.2425,-31.8232 17.4292,-4.58065 36.8248,10.97262 43.2493,34.68075 2.235,8.24867 2.7362,13.2403 2.3802,23.71377 -0.6259,18.41473 -4.0413,27.18464 -18.8584,48.41836 -41.261,59.13037 -90.1711,97.1873 -140.2416,109.12199 -17.5308,4.17837 -46.8943,5.67105 -64.0486,3.25567 z"
     id="path1767" />
  <path
     style="fill:#4c33cc;fill-opacity:1;stroke-width:1.50257"
     d="m 557.389,-156.36632 c -40.0733,-4.60542 -76.7115,-19.76541 -161.6102,-66.86975 -71.5791,-39.71421 -95.8246,-50.82769 -126.2525,-57.87058 -16.5672,-3.83487 -44.75227,-3.90346 -60.01216,-0.14408 -34.18542,8.41679 -69.0982,33.00347 -100.76374,70.9611 -16.937255,20.30278 -22.678394,24.37285 -35.740154,25.33716 -13.89147,1.02586 -22.54647,-3.41589 -30.47851,-15.64133 -8.1674,-12.59021 -11.49767,-23.06471 -12.04851,-37.89758 -0.91846,-24.73237 6.87247,-40.59801 35.50664,-72.30652 60.013394,-66.45693 126.043914,-95.4906 195.478234,-85.95193 43.7132,6.00521 80.3275,20.63751 154.7266,61.83386 69.8992,38.70472 99.891,53.41454 122.714,60.18621 18.1851,5.39557 48.4887,6.69933 63.6608,2.7387 35.5167,-9.27102 60.8666,-28.66522 92.5971,-70.84237 21.2398,-28.23246 25.5905,-31.60581 40.9511,-31.75128 9.393,-0.0865 11.829,0.5648 18.1438,4.86074 14.6985,10.00198 23.3195,30.49333 22.4686,53.40618 -0.7129,19.19791 -3.9029,26.47962 -23.2443,53.06333 -47.873,65.79835 -98.5255,100.23584 -157.3691,106.99183 -16.7884,1.92781 -21.1546,1.91571 -38.7277,-0.10374 z"
     id="path2564" />
  <path
     style="fill:#4c33cc;fill-opacity:1;stroke-width:1.22762"
     d="m 557.76903,-157.01095 c -39.7587,-4.86316 -74.1798,-19.09612 -160.982,-66.56536 -94.9146,-51.90564 -117.1211,-60.41984 -157.5857,-60.41984 -21.36498,0 -32.30676,1.8452 -47.66429,8.0378 -27.96098,11.2748 -53.05031,30.7966 -81.79616,63.64504 -20.618327,23.56088 -25.143977,26.52688 -40.476357,26.52688 -12.96616,0 -21.69308,-6.38712 -29.98606,-21.94636 -5.44119,-10.20868 -7.59203,-19.76696 -7.63066,-33.91044 -0.0548,-20.13392 5.05702,-32.391 22.60149,-54.19164 20.63447,-25.64028 46.844437,-49.83 72.332067,-66.75676 55.73761,-37.01628 111.27577,-44.45428 177.68387,-23.79644 28.9835,9.016 57.9932,22.776 123.9898,58.81136 68.0913,37.17912 97.5292,50.89128 119.0793,55.46704 7.7889,1.654 15.7265,2.2048 31.3043,2.1732 19.5669,-0.0399 21.5209,-0.26 31.3044,-3.514 32.1012,-10.67948 54.406,-28.47 84.8499,-67.67732 14.8017,-19.0624 24.5175,-29.19816 29.9787,-31.27448 5.2536,-1.9976 19.9078,-1.4668 24.9347,0.9028 6.2083,2.9264 15.3382,12.3364 19.0213,19.60464 5.4691,10.7928 7.22,20.29832 6.7529,36.6606 -0.4072,14.26036 -0.5912,15.13892 -5.0704,24.19968 -8.3066,16.80292 -30.5693,46.23908 -51.1871,67.68064 -39.2728,40.84188 -78.7475,61.4932 -127.9529,66.93888 -14.1985,1.5712 -16.0534,1.5384 -33.5011,-0.5956 z"
     id="path3391" />
  <path
     style="fill:#f2f2f2;fill-opacity:1;stroke-width:1.22762"
     d="m 560.88901,-156.50491 c -40.4226,-4.22132 -75.804,-18.6894 -164.5676,-67.2946 -65.9982,-36.13936 -92.3419,-48.46632 -120.3069,-56.29508 -10.8835,-3.0468 -13.3432,-3.26564 -36.8286,-3.27632 -22.98026,-0.0104 -25.96602,0.24 -34.37342,2.8664 -34.39324,10.75048 -61.91483,30.49736 -95.05445,68.20216 -20.748151,23.60632 -25.193081,26.51584 -40.508941,26.51584 -12.96616,0 -21.69308,-6.38712 -29.98606,-21.94636 -5.44119,-10.2086 -7.59203,-19.76688 -7.63066,-33.91036 -0.055,-20.13392 5.05702,-32.391 22.60149,-54.19164 25.31507,-31.45636 59.698841,-61.11292 90.659091,-78.19496 31.98834,-17.64932 72.49613,-26.44144 106.49475,-23.11444 48.9121,4.78632 82.437,17.97124 176.8519,69.55348 75.8069,41.41608 105.1698,54.19968 131.3555,57.18776 53.6455,6.12156 90.2569,-13.04432 135.1824,-70.76752 14.8213,-19.04328 24.5337,-29.16164 29.9787,-31.23184 4.7485,-1.8056 19.6882,-1.4612 24.5386,0.5656 6.4016,2.6748 16.1747,13.18896 20.2301,21.76416 5.0693,10.71896 6.4438,18.88048 5.9487,35.32216 -0.412,13.6828 -0.6352,14.72416 -5.0789,23.71452 -8.4571,17.10936 -30.7709,46.51152 -51.7965,68.25044 -39.5167,40.85716 -78.0294,60.8938 -127.6988,66.43648 -12.4428,1.3884 -15.3663,1.3732 -30.0104,-0.156 z"
     id="path3393" />
</svg>
